<svg
   version="1.0"
   width="722pt"
   height="722pt"
   viewBox="0 0 722 722"
   preserveAspectRatio="xMidYMid"
   id="svg1"
   xmlns="http://www.w3.org/2000/svg"
   xmlns:svg="http://www.w3.org/2000/svg">
  <defs
     id="defs1" />
  <g
     transform="matrix(0.14582145,0,0,-0.16123731,-160.51139,962.24358)"
     fill="currentColor"
     stroke="none"
     id="g1">
    <path
       d="m 4255,5960 c -467,-6 -493,-8 -564,-29 -41,-12 -92,-33 -115,-46 -24,-13 -194,-64 -401,-120 -494,-132 -735,-216 -821,-288 -16,-13 -85,-54 -154,-91 -302,-164 -393,-220 -462,-283 -39,-36 -157,-129 -262,-207 -105,-79 -211,-165 -234,-192 -55,-62 -117,-191 -133,-272 -17,-89 -7,-221 23,-307 20,-58 164,-277 812,-1235 668,-987 799,-1176 861,-1237 118,-116 233,-163 394,-163 110,0 187,16 269,56 29,14 159,105 289,201 l 235,175 357,67 c 215,41 358,64 362,58 8,-11 619,-31 774,-24 78,3 128,11 170,26 198,71 360,272 394,488 6,40 3,544 -9,1490 -21,1525 -18,1474 -69,1589 -71,160 -225,292 -391,336 -72,19 -336,20 -1325,8 z m 1323,-259 c 70,-32 153,-122 182,-198 21,-57 21,-72 39,-1448 12,-875 15,-1412 10,-1449 -20,-126 -100,-219 -229,-269 -41,-16 -127,-19 -884,-29 -900,-12 -895,-12 -982,37 -53,31 -114,98 -144,160 -23,46 -25,66 -31,250 -10,291 -33,2556 -27,2645 9,139 90,242 232,298 35,14 113,17 531,22 270,4 661,6 870,6 378,-1 380,-1 433,-25 z M 3273,5463 c -4,-21 -7,-132 -6,-248 4,-479 23,-1807 28,-2020 4,-126 4,-227 1,-225 -2,3 -70,388 -151,855 -81,468 -165,954 -187,1080 -44,253 -44,305 1,398 50,104 184,192 299,196 21,1 22,-2 15,-36 z m -566,-140 c -16,-46 -21,-80 -20,-168 0,-96 16,-202 126,-820 173,-973 339,-1936 335,-1940 -2,-2 -70,218 -152,488 -82,271 -257,843 -389,1272 -229,744 -240,784 -240,860 0,70 4,88 33,147 18,37 40,74 49,82 22,20 250,136 266,136 10,0 8,-14 -8,-57 z m -584,-345 c 5,-69 36,-182 192,-688 299,-968 615,-2003 612,-2006 -1,-1 -105,213 -231,475 -126,262 -375,775 -552,1141 -198,407 -328,686 -335,719 -24,114 18,240 99,301 110,81 195,140 202,140 4,0 10,-37 13,-82 z m -537,-451 c 8,-32 150,-336 316,-675 662,-1357 805,-1653 790,-1637 -5,6 -146,213 -312,460 -167,248 -458,679 -648,958 -189,280 -354,530 -365,555 -17,36 -22,66 -22,132 0,76 3,92 33,152 26,54 48,79 105,127 l 72,59 8,-37 c 4,-20 14,-62 23,-94 z"
       id="path1" />
  </g>
</svg>
