<svg version="1.0" xmlns="http://www.w3.org/2000/svg"
 width="1000.000000pt" height="1000.000000pt" viewBox="0 0 1000.000000 1000.000000"
 preserveAspectRatio="xMidYMid meet">

<g transform="translate(0.000000,1000.000000) scale(0.100000,-0.100000)"
fill="currentColor" stroke="none">
<path d="M4665 9969 c-175 -10 -445 -42 -595 -70 -219 -42 -590 -148 -785
-224 -38 -15 -99 -36 -135 -46 -71 -21 -497 -228 -570 -277 -25 -16 -92 -56
-150 -87 -58 -31 -131 -76 -162 -99 -31 -22 -103 -74 -160 -115 -405 -292
-809 -688 -1084 -1062 -228 -310 -256 -352 -278 -403 -7 -18 -40 -77 -73 -132
-99 -163 -258 -488 -288 -584 -9 -30 -34 -102 -55 -160 -129 -348 -230 -749
-266 -1054 -45 -382 -53 -667 -29 -977 24 -309 43 -441 96 -694 50 -238 117
-469 194 -670 23 -60 46 -126 50 -145 15 -75 120 -306 158 -348 11 -12 28 -22
38 -22 9 0 40 28 69 63 28 34 62 74 76 89 13 14 27 34 32 45 4 10 70 113 147
229 175 262 266 442 317 619 28 99 30 276 4 405 -32 164 -47 307 -54 511 -9
245 1 595 22 769 34 287 129 629 257 924 22 49 39 95 39 102 0 35 204 406 296
539 31 44 63 94 72 110 19 37 115 168 145 198 12 12 37 40 56 62 18 22 63 73
100 114 36 41 76 88 87 105 12 17 53 58 90 91 38 33 71 62 74 65 3 3 57 53
120 111 137 124 214 189 227 189 9 0 192 128 223 155 21 19 270 159 344 194
33 15 106 47 161 69 55 22 138 56 185 75 85 35 373 121 505 150 302 67 544 92
890 91 291 -1 439 -13 675 -55 170 -31 495 -116 565 -148 11 -5 47 -19 80 -31
63 -23 297 -120 355 -147 141 -67 654 -390 677 -426 5 -7 33 -32 63 -57 188
-154 325 -290 500 -495 51 -60 96 -112 99 -115 13 -11 69 -86 82 -112 8 -14
57 -91 110 -170 116 -173 185 -297 272 -494 104 -237 164 -403 220 -614 74
-278 72 -245 72 -955 1 -561 3 -647 17 -695 9 -30 26 -89 37 -130 11 -41 36
-113 54 -160 18 -47 46 -130 61 -185 55 -195 69 -237 105 -295 39 -65 210
-245 242 -255 11 -4 74 -45 140 -91 65 -46 123 -84 127 -84 19 0 133 299 177
465 7 28 27 97 43 155 75 262 126 644 141 1054 17 455 -12 819 -94 1186 -31
140 -44 188 -89 340 -31 103 -96 298 -111 335 -10 22 -31 83 -47 135 -17 52
-48 133 -70 180 -60 125 -162 330 -184 367 -77 130 -124 212 -124 219 0 9 -90
146 -150 229 -110 152 -222 303 -239 320 -10 11 -59 67 -109 125 -149 174
-341 363 -582 571 -25 22 -112 89 -195 149 -82 61 -166 123 -185 139 -47 37
-154 104 -210 130 -25 12 -76 41 -115 65 -134 85 -498 262 -625 306 -69 23
-151 53 -183 66 -167 70 -609 187 -842 223 -374 57 -730 73 -1150 50z"/>
<path d="M5805 7504 c-56 -28 -126 -107 -161 -179 -41 -83 -42 -114 -9 -153
25 -29 203 -132 228 -132 25 0 236 -114 281 -153 66 -56 86 -106 86 -215 0
-149 -31 -214 -179 -377 -45 -49 -94 -108 -109 -130 -14 -22 -46 -63 -69 -91
-74 -88 -113 -162 -113 -214 0 -48 27 -134 56 -178 29 -44 106 -123 151 -154
71 -48 117 -59 284 -68 189 -10 219 -21 277 -108 55 -82 142 -235 142 -251 0
-7 9 -30 20 -50 38 -71 153 -318 202 -436 28 -66 65 -149 83 -185 18 -36 44
-97 58 -136 14 -39 71 -161 126 -272 56 -111 101 -203 101 -206 0 -2 18 -43
40 -90 60 -129 100 -294 100 -414 0 -188 -35 -258 -203 -409 -66 -59 -157
-142 -201 -184 -45 -43 -94 -88 -109 -100 -86 -72 -122 -119 -113 -152 11 -47
126 -194 197 -254 29 -25 31 -25 62 -10 338 164 492 224 741 287 199 50 384
65 661 56 205 -6 295 -21 470 -76 120 -38 305 -90 322 -90 6 0 23 24 37 52 31
65 79 153 93 170 20 24 53 88 53 102 0 7 -33 42 -72 77 -40 35 -77 69 -83 76
-5 6 -39 35 -75 62 -36 28 -78 63 -93 78 -32 32 -120 170 -166 261 -49 98
-199 466 -246 602 -23 69 -65 181 -92 250 -28 69 -59 152 -68 184 -10 33 -31
89 -47 125 -17 36 -57 129 -90 205 -33 77 -73 165 -89 195 -39 78 -139 292
-139 300 0 3 -34 74 -76 156 -246 485 -249 492 -340 718 -117 289 -161 415
-194 557 -11 47 -24 101 -30 120 -15 58 -40 279 -40 364 0 43 5 129 11 190 14
140 9 157 -63 190 -93 42 -253 50 -776 35 -499 -14 -520 -13 -684 41 -104 35
-113 35 -153 14z"/>
<path d="M2171 7364 c-68 -63 -155 -185 -172 -243 -18 -61 -7 -70 148 -124
234 -82 273 -98 315 -131 73 -55 83 -77 82 -169 -1 -127 -41 -260 -193 -657
-94 -244 -106 -289 -87 -334 17 -40 107 -131 151 -152 17 -8 50 -27 75 -42 97
-60 166 -84 248 -85 97 -1 141 18 179 79 15 24 31 44 34 44 4 0 10 12 13 26
13 50 98 209 129 242 40 41 75 42 147 0 103 -58 400 -377 460 -493 23 -44 70
-117 90 -140 10 -11 32 -47 51 -80 152 -275 221 -407 234 -451 8 -28 35 -95
61 -150 44 -95 154 -368 154 -382 0 -4 6 -19 14 -34 32 -62 137 -410 194 -643
71 -293 98 -430 127 -640 20 -150 33 -312 40 -485 3 -80 8 -184 11 -232 l6
-87 106 -62 c106 -63 193 -99 239 -99 30 0 96 68 143 146 76 130 108 164 366
389 91 80 249 197 300 223 22 11 59 36 81 54 22 18 71 55 108 81 l67 48 -7 67
c-9 94 -76 332 -135 482 -10 25 -28 79 -41 120 -13 41 -43 127 -67 190 -161
420 -182 522 -182 868 0 227 -10 187 92 372 80 145 158 327 158 367 -1 71 -68
171 -172 256 -99 81 -267 108 -404 66 -81 -25 -111 -45 -180 -118 -59 -64 -69
-63 -116 5 -18 26 -52 70 -76 98 -46 55 -142 192 -142 204 0 4 -27 45 -59 92
-32 47 -92 137 -132 200 -40 63 -96 152 -126 197 -29 44 -53 85 -53 90 0 4
-24 51 -53 103 -29 52 -68 122 -86 155 -19 33 -39 67 -47 75 -16 19 -177 336
-277 547 -42 89 -82 165 -88 169 -10 6 -1113 29 -1611 33 -55 1 -58 0 -117
-55z"/>
<path d="M2218 5400 c-72 -22 -120 -69 -200 -192 -44 -69 -124 -255 -162 -378
-52 -172 -235 -729 -281 -855 -26 -71 -66 -184 -90 -250 -69 -195 -202 -478
-324 -688 -28 -49 -51 -91 -51 -94 0 -9 -84 -127 -141 -198 -52 -65 -82 -94
-211 -208 -26 -23 -47 -46 -48 -52 -1 -37 142 -252 182 -273 22 -12 31 -10 94
23 38 20 87 51 109 69 52 43 168 108 236 134 155 57 362 81 704 82 99 1 238 5
310 10 143 9 155 15 155 77 0 57 -35 108 -172 251 -142 148 -178 206 -199 317
-34 179 62 573 223 925 16 36 41 92 55 125 28 67 52 121 93 210 86 185 193
495 206 594 8 64 -13 106 -84 168 -178 156 -323 229 -404 203z"/>
<path d="M7830 2298 c-118 -32 -259 -124 -420 -273 -125 -115 -420 -314 -640
-430 -47 -25 -102 -55 -123 -66 -20 -12 -70 -34 -110 -49 -39 -15 -110 -45
-157 -65 -118 -53 -404 -149 -530 -179 -271 -65 -552 -91 -874 -83 -261 7
-382 18 -611 58 -218 38 -343 67 -495 114 -103 32 -509 193 -530 210 -8 7 -58
35 -110 62 -133 70 -210 117 -317 190 -51 35 -96 63 -102 63 -10 0 -191 126
-206 145 -16 18 -223 197 -258 223 -18 13 -46 37 -63 53 l-31 30 -179 -11
c-353 -21 -572 -63 -844 -163 -166 -60 -203 -92 -174 -149 59 -114 447 -529
677 -724 56 -48 109 -95 118 -105 9 -9 29 -26 45 -36 16 -10 83 -58 149 -107
204 -153 218 -163 292 -210 39 -25 75 -46 80 -46 9 0 120 -64 183 -105 67 -45
466 -241 525 -259 33 -10 123 -42 200 -71 268 -101 590 -188 875 -235 151 -25
364 -40 645 -46 512 -11 873 22 1290 117 114 26 473 133 528 158 68 29 148 59
207 75 70 19 430 197 569 281 58 35 120 69 136 76 29 13 151 91 225 144 456
329 664 519 1008 916 110 127 225 287 219 303 -15 39 -201 91 -462 130 -55 9
-179 29 -275 46 -184 31 -384 40 -460 18z"/>
</g>
</svg>
