<svg xmlns:svg="http://www.w3.org/2000/svg" xmlns="http://www.w3.org/2000/svg" version="1.1" width="600" height="1069.58"><style>.s0{fill-opacity:1;fill-rule:nonzero;fill:#fff;}</style><defs><clipPath><path d="M0 300 163 300 163 0 0 0 0 300z"/></clipPath><clipPath><path d="M0 300 163 300 163 0 0 0 0 300z"/></clipPath></defs><g transform="translate(-109.55385,347.04011)"><g transform="matrix(3.6809929,0,0,-3.6809929,-900.60484,1793.0804)"><g clip-path="url(#clipPath3532)"><g transform="translate(272.3291,0)"><path d="m0 0c0 0 115.15 80.63 78.45 254.6 0 0-55.22-4.72-78.09 45.4C-22.53 249.88-78.09 254.6-78.09 254.6-114.78 80.63 0 0 0 0" class="s0"/></g></g><g transform="translate(274.4256,286.11342)" clip-path="url(#clipPath3544)"><g transform="translate(81.6865,295.2842)"><path d="m0 0c-4.72 0-12.35-0.37-15.61-4.36l-11.98 0.37 0-25.06 3.64 0c-3.27-11.62-2.54-24.69-0.36-36.32l-36.31 0-21.06-21.07 0-48.66 26.5 26.52 14.52 0 8.36-112.59 32.31-69.38 32.31 69.38 8.35 112.6 14.52 0 26.14-26.52 0 49.04-20.33 20.7-36.66 0c2.17 11.63 2.91 24.7-0.37 36.32l3.28 0 0 25.06-11.62-0.73C12.34-0.37 5.07 0 0 0" class="s0"/></g><g transform="translate(81.6865,22.1563)"><path d="m0 0-26.86 57.75-8.72 112.6-23.23 0-15.61-17.44 0 31.96 17.42 17.44 38.85 0c0 0-6.9 26.14 1.45 44.31l-5.44 0 0 14.89 10.17 0c0 0-2.18 4 11.99 4 14.15 0 11.61-3.99 11.61-3.99l10.17 0 0-14.89-5.08 0c8.35-18.16 1.08-44.3 1.08-44.3l39.21 0 17.42-17.44 0-31.24-15.97 16.72-23.23 0L26.87 57.75 0 0zm-4 212.11c-2.54 0-4.36-1.81-4.36-3.99 0-2.54 1.82-4.36 4.36-4.36l7.99 0c2.54 0 4.36 1.82 4.36 4.36 0 2.18-1.82 3.99-4.36 3.99l-7.99 0zM-17.07 133.3-12.71 66.47 0 38.86 12.7 66.47 17.06 133.3 0 117.68-17.07 133.3zm0.36 32.33 0-13.08L0 138.01l16.7 14.53 0 13.08-33.4 0zM-4 243.71c-2.54 0-4.36-1.82-4.36-4 0-2.18 1.82-4.36 4.36-4.36l7.99 0c2.54 0 4.36 2.18 4.36 4.36 0 2.18-1.82 4-4.36 4l-7.99 0zm4.36-66.47 14.52 0 0 6.17 37.76 0 11.62-11.62 0 9.45-11.62 11.62-44.65 0c-0.37-1.45-2.18-2.54-4-2.54l-7.99 0c-1.82 0-3.63 1.1-3.99 2.54l-44.66 0-11.61-10.89 0-9.81 11.98 11.26 36.67 0 0-6.17 15.97 0zm-14.89 79.55 0-4.72 6.9 0c0.72 1.09 2.18 1.81 3.63 1.81l8.35 0c1.1 0 2.54-0.72 3.27-1.81l6.9 0 0 4.72-29.04 0zM-4 228.45c-2.54 0-4.36-1.81-4.36-4.36 0-2.18 1.82-4 4.36-4l7.99 0c2.54 0 4.36 1.82 4.36 4 0 2.54-1.82 4.36-4.36 4.36l-7.99 0z" style="fill-opacity:1;fill-rule:nonzero;fill:#000"/></g></g></g></g></svg>
