<svg xmlns:svg="http://www.w3.org/2000/svg" xmlns="http://www.w3.org/2000/svg" version="1.1" width="600" height="1052.63"><defs><clipPath><path d="M0 300 171 300 171 0 0 0 0 300z"/></clipPath></defs><g transform="translate(-313.1252,444.20003)"><g transform="matrix(3.5087788,0,0,-3.5087788,313.12403,608.43361)"><g clip-path="url(#clipPath3333)"><g transform="translate(85.3291,0)"><path d="m0 0c0 0 115.15 80.63 78.45 254.6 0 0-55.22-4.72-78.09 45.4C-22.53 249.88-78.09 254.6-78.09 254.6-114.78 80.63 0 0 0 0" fill="#fff"/></g><g transform="translate(155.7813,245.1567)"><path d="M0 0C0 0-50.12-4.36-70.82 41.04-91.89-4.36-142.02 0-142.02 0c-33.41-158.36 70.83-231.36 70.83-231.36 0 0 104.25 73 71.19 231.36m-13.8-18.15c26.88-127.85-57.39-187.06-57.39-187.06 0 0-84.27 59.21-57.4 187.06 0 0 40.69-3.64 57.4 33.05 17.07-36.68 57.39-33.04 57.39-33.04m-38.5-19.62 0 13.44-18.89 14.89-18.88-14.89 0-13.44 37.77 0zm21.07-12.71-79.91 0c-18.53-88.62 39.95-129.66 39.95-129.66 0 0 58.48 41.04 39.96 129.66" fill="#000"/></g></g></g></g></svg>
